<?xml version="1.0" encoding="utf-8"?>
<!-- Generator: Adobe Illustrator 26.5.0, SVG Export Plug-In . SVG Version: 6.00 Build 0)  -->
<svg version="1.1" xmlns="http://www.w3.org/2000/svg" xmlns:xlink="http://www.w3.org/1999/xlink" x="0px" y="0px"
	 viewBox="0 0 1000 300" style="enable-background:new 0 0 1000 300;" xml:space="preserve">
<style type="text/css">
	.st0{display:none;}
	.st1{display:inline;fill:none;stroke:#8B4BFF;stroke-miterlimit:10;}
	.st2{fill:#E6E6E6;}
	.st3{fill:url(#SVGID_1_);}
	.st4{fill:url(#SVGID_00000100366712152050856870000000444986445675769737_);}
	.st5{fill:url(#SVGID_00000066506189843106884680000014921078338715398811_);}
	.st6{fill:url(#SVGID_00000087388686767014293000000001531719507566931090_);}
	.st7{fill:url(#SVGID_00000116920204926731047380000010227814030111731842_);}
	.st8{fill:url(#SVGID_00000173139050906314108150000000286760714757855401_);}
	.st9{fill:url(#SVGID_00000181767118570418817200000014075598427472637842_);}
	.st10{fill:#004DFE;}
	.st11{fill:#0C0C0C;}
	.st12{fill:#FFFFFF;}
	.st13{fill:#CCCCCC;}
	.st14{fill:#64E581;}
	.st15{fill:#00165A;}
	.st16{clip-path:url(#SVGID_00000084514199791151783870000010015190980535512216_);fill:#FFFFFF;}
	.st17{filter:url(#Adobe_OpacityMaskFilter);}
	.st18{fill:url(#SVGID_00000020372066432603507500000011055008505485962913_);}
	.st19{mask:url(#SVGID_00000011716197230575462080000005343274288931650180_);fill-rule:evenodd;clip-rule:evenodd;fill:#FFFFFF;}
	.st20{filter:url(#Adobe_OpacityMaskFilter_00000138531595958207403660000013335942484952827827_);}
	.st21{fill:url(#SVGID_00000041997851913255271410000007640327115410264722_);}
	.st22{mask:url(#SVGID_00000065757061620383560150000010361143747081132441_);fill-rule:evenodd;clip-rule:evenodd;fill:#FFFFFF;}
	.st23{filter:url(#Adobe_OpacityMaskFilter_00000054235999059248531030000003007158654969111171_);}
	.st24{fill:url(#SVGID_00000039115644997928357750000007529293666787187620_);}
	.st25{mask:url(#SVGID_00000095303249875416664400000013721357709025520795_);fill-rule:evenodd;clip-rule:evenodd;fill:#FFFFFF;}
	.st26{clip-path:url(#SVGID_00000178910840095068449520000007951973816796843439_);fill:#FFFFFF;}
	.st27{filter:url(#Adobe_OpacityMaskFilter_00000109001425918127800620000007032207847748474559_);}
	.st28{fill:url(#SVGID_00000053520962678925333070000016301808534391926709_);}
	.st29{mask:url(#SVGID_00000153687753210559522430000001879910274752279477_);fill-rule:evenodd;clip-rule:evenodd;fill:#FFFFFF;}
	.st30{filter:url(#Adobe_OpacityMaskFilter_00000041979439742768628830000010055863134058649006_);}
	.st31{fill:url(#SVGID_00000097490395340150144890000001042414757028856720_);}
	.st32{mask:url(#SVGID_00000059995114942604644850000009261683454877565067_);fill-rule:evenodd;clip-rule:evenodd;fill:#FFFFFF;}
	.st33{filter:url(#Adobe_OpacityMaskFilter_00000114782783568466651960000007592362588306601348_);}
	.st34{fill:url(#SVGID_00000091711304192977546040000010070741673301069495_);}
	.st35{mask:url(#SVGID_00000038388148593248304110000001219441351116001935_);fill-rule:evenodd;clip-rule:evenodd;fill:#FFFFFF;}
	.st36{clip-path:url(#SVGID_00000160180941545052092560000004360662067649014959_);}
	.st37{filter:url(#Adobe_OpacityMaskFilter_00000025408273006966835720000015748274256365503875_);}
	.st38{fill:url(#SVGID_00000024711094830887160870000012789120261580984203_);}
	.st39{mask:url(#SVGID_00000030460354757669103030000014586882775952236975_);fill-rule:evenodd;clip-rule:evenodd;}
	.st40{filter:url(#Adobe_OpacityMaskFilter_00000183947389789754176510000017572995015725566650_);}
	.st41{fill:url(#SVGID_00000001632651299729715960000012012291687112360080_);}
	.st42{mask:url(#SVGID_00000016045896348523973360000012451469214476870802_);fill-rule:evenodd;clip-rule:evenodd;}
	.st43{filter:url(#Adobe_OpacityMaskFilter_00000046300828787747793590000000677245501746274955_);}
	.st44{fill:url(#SVGID_00000152942820825837649170000013307461462403366836_);}
	.st45{mask:url(#SVGID_00000011006559661769371530000016268434310015091900_);fill-rule:evenodd;clip-rule:evenodd;}
	.st46{clip-path:url(#SVGID_00000003805407258818794280000011675042946888248739_);}
	.st47{filter:url(#Adobe_OpacityMaskFilter_00000013910652066068426910000014223160155691673260_);}
	.st48{fill:url(#SVGID_00000103943106963159101360000017483993637953734534_);}
	.st49{mask:url(#SVGID_00000173864567188311190770000001072413367456302774_);fill-rule:evenodd;clip-rule:evenodd;}
	.st50{filter:url(#Adobe_OpacityMaskFilter_00000115514776460387110980000004073077439554185398_);}
	.st51{fill:url(#SVGID_00000049196201075310278070000007956614029612481726_);}
	.st52{mask:url(#SVGID_00000115498491441215020200000003906687798401811622_);fill-rule:evenodd;clip-rule:evenodd;}
	.st53{filter:url(#Adobe_OpacityMaskFilter_00000181786409278836044690000007776958550358244495_);}
	.st54{fill:url(#SVGID_00000160886387901702804630000005904350467852074171_);}
	.st55{mask:url(#SVGID_00000106104936552591578760000001914583241311765927_);fill-rule:evenodd;clip-rule:evenodd;}
	
		.st56{clip-path:url(#SVGID_00000119109791243359702570000003183687001397654703_);fill:url(#SVGID_00000055681452183203423970000001935996342769942408_);}
	.st57{filter:url(#Adobe_OpacityMaskFilter_00000127742419346264597620000012421843206433653653_);}
	.st58{fill:url(#SVGID_00000061456373571929857190000003582143130804251549_);}
	.st59{mask:url(#SVGID_00000137100752285422229020000015266227195890519735_);fill-rule:evenodd;clip-rule:evenodd;fill:#ADF3FF;}
	.st60{filter:url(#Adobe_OpacityMaskFilter_00000147204382728321282600000001372575997229211065_);}
	.st61{fill:url(#SVGID_00000051345928680130924030000017810548085409597322_);}
	.st62{mask:url(#SVGID_00000183225003130286059860000000858680606295010960_);fill-rule:evenodd;clip-rule:evenodd;fill:#021B8D;}
	.st63{filter:url(#Adobe_OpacityMaskFilter_00000114761153079877235020000008072131968656622008_);}
	.st64{fill:url(#SVGID_00000087408409900291378790000016548527579925794467_);}
	.st65{mask:url(#SVGID_00000067935594668723551100000000498486713160966312_);fill-rule:evenodd;clip-rule:evenodd;fill:#021B8D;}
	
		.st66{clip-path:url(#SVGID_00000036954407961417449060000005575101656257122745_);fill:url(#SVGID_00000061464572500304621590000005034568380227959723_);}
	.st67{filter:url(#Adobe_OpacityMaskFilter_00000069375438708189387030000005681474814391218304_);}
	.st68{fill:url(#SVGID_00000147933659180177679590000011703453537704435088_);}
	.st69{mask:url(#SVGID_00000109746847255810411570000012297502923038916249_);fill-rule:evenodd;clip-rule:evenodd;fill:#1FA39A;}
	.st70{filter:url(#Adobe_OpacityMaskFilter_00000015335228249330249810000001490083312390075321_);}
	.st71{fill:url(#SVGID_00000045602055413944460100000006088656382786896562_);}
	.st72{mask:url(#SVGID_00000142858611236442939170000008493416571507748233_);fill-rule:evenodd;clip-rule:evenodd;fill:#ECF955;}
	.st73{filter:url(#Adobe_OpacityMaskFilter_00000136373235569264439510000004691135094885075095_);}
	.st74{fill:url(#SVGID_00000053509425926215873460000012834330863121993880_);}
	.st75{mask:url(#SVGID_00000107563332449203961400000013679838024254944187_);fill-rule:evenodd;clip-rule:evenodd;fill:#ECF955;}
	
		.st76{clip-path:url(#SVGID_00000074419532934853677190000004026883082044915875_);fill:url(#SVGID_00000125594487461806617690000009618638203121539986_);}
	.st77{filter:url(#Adobe_OpacityMaskFilter_00000160192262634553930190000007615789197213923237_);}
	.st78{fill:url(#SVGID_00000127731902934036574070000016450490903581674158_);}
	.st79{mask:url(#SVGID_00000038406639439788001310000009401834070158556073_);fill-rule:evenodd;clip-rule:evenodd;fill:#ADF3FF;}
	.st80{filter:url(#Adobe_OpacityMaskFilter_00000124130605425859364630000008349542602526831510_);}
	.st81{fill:url(#SVGID_00000078750958271468428430000011629771582855017115_);}
	.st82{mask:url(#SVGID_00000115499177409404503240000000523147751304541354_);fill-rule:evenodd;clip-rule:evenodd;fill:#021B8D;}
	.st83{filter:url(#Adobe_OpacityMaskFilter_00000172412510815492509900000008634903972957899415_);}
	.st84{fill:url(#SVGID_00000062155555790130121960000017562471452742811028_);}
	.st85{mask:url(#SVGID_00000030465539830154637600000015213198767406107017_);fill-rule:evenodd;clip-rule:evenodd;fill:#021B8D;}
	
		.st86{clip-path:url(#SVGID_00000125601602333288902040000000423831064140492731_);fill:url(#SVGID_00000165956874468296896870000007844668309979016587_);}
	.st87{filter:url(#Adobe_OpacityMaskFilter_00000129926910002916697510000009904650356755342271_);}
	.st88{fill:url(#SVGID_00000087409166231396202800000012348388726809542528_);}
	.st89{mask:url(#SVGID_00000136410847358783305740000006147763762141983888_);fill-rule:evenodd;clip-rule:evenodd;fill:#1FA39A;}
	.st90{filter:url(#Adobe_OpacityMaskFilter_00000124873995846496945460000007745862918227133607_);}
	.st91{fill:url(#SVGID_00000167366649145171603190000012523741305901980802_);}
	.st92{mask:url(#SVGID_00000143574775380504107910000006887883811108936098_);fill-rule:evenodd;clip-rule:evenodd;fill:#ECF955;}
	.st93{filter:url(#Adobe_OpacityMaskFilter_00000060032573284216579920000001457359562476534962_);}
	.st94{fill:url(#SVGID_00000082346357998018307260000000819985446796016011_);}
	.st95{mask:url(#SVGID_00000075160237543337830390000004230883725290472627_);fill-rule:evenodd;clip-rule:evenodd;fill:#ECF955;}
	
		.st96{clip-path:url(#SVGID_00000067959069875580689640000016061077189445076875_);fill:url(#SVGID_00000091723653011835320180000001456393420673888951_);}
	.st97{filter:url(#Adobe_OpacityMaskFilter_00000158008259405385420420000014598137114471035791_);}
	.st98{fill:url(#SVGID_00000061468493551622530890000018379717249042079162_);}
	.st99{mask:url(#SVGID_00000051377812964748257120000004836816721779984821_);fill-rule:evenodd;clip-rule:evenodd;fill:#ADF3FF;}
	.st100{filter:url(#Adobe_OpacityMaskFilter_00000164513230183004957140000011676353766793072768_);}
	.st101{fill:url(#SVGID_00000100365085207210965940000010316158713784498823_);}
	.st102{mask:url(#SVGID_00000008842991311471617880000006698323214895128980_);fill-rule:evenodd;clip-rule:evenodd;fill:#021B8D;}
	.st103{filter:url(#Adobe_OpacityMaskFilter_00000078002345892054485560000009920662822519089284_);}
	.st104{fill:url(#SVGID_00000150087582387185833510000015067945074434116002_);}
	.st105{mask:url(#SVGID_00000088850438156995950100000006762711183244263852_);fill-rule:evenodd;clip-rule:evenodd;fill:#021B8D;}
	
		.st106{clip-path:url(#SVGID_00000041268130353297978800000006842809256907262604_);fill:url(#SVGID_00000010989307074666532210000016926660984809426327_);}
	.st107{filter:url(#Adobe_OpacityMaskFilter_00000139985649003893573810000012232489855776969404_);}
	.st108{fill:url(#SVGID_00000175304460115049512770000011923877291048633509_);}
	.st109{mask:url(#SVGID_00000142146321105807910240000007891950140982528160_);fill-rule:evenodd;clip-rule:evenodd;fill:#1FA39A;}
	.st110{filter:url(#Adobe_OpacityMaskFilter_00000122681570307756873950000002183791096883286666_);}
	.st111{fill:url(#SVGID_00000145051199232349206470000006024574615828499104_);}
	.st112{mask:url(#SVGID_00000088130203550666892520000007373103503178620587_);fill-rule:evenodd;clip-rule:evenodd;fill:#ECF955;}
	.st113{filter:url(#Adobe_OpacityMaskFilter_00000150079036925867007360000001781376892943360700_);}
	.st114{fill:url(#SVGID_00000039118406590690706710000015779033031187698061_);}
	.st115{mask:url(#SVGID_00000129896568347080140740000003979298950025177017_);fill-rule:evenodd;clip-rule:evenodd;fill:#ECF955;}
	
		.st116{clip-path:url(#SVGID_00000064340114996713771660000015648696394679645878_);fill:url(#SVGID_00000168095896242299601220000014455736599089828263_);}
	.st117{filter:url(#Adobe_OpacityMaskFilter_00000139276246600469367870000010057288504557701506_);}
	.st118{fill:url(#SVGID_00000176721594740387175110000004717760478035987624_);}
	.st119{mask:url(#SVGID_00000183932647465669158500000011325479087735128718_);fill-rule:evenodd;clip-rule:evenodd;fill:#ADF3FF;}
	.st120{filter:url(#Adobe_OpacityMaskFilter_00000078028774003678721890000002934157072493532554_);}
	.st121{fill:url(#SVGID_00000060709455466809469700000013302461009078928040_);}
	.st122{mask:url(#SVGID_00000182494603954490475330000012345020237336873609_);fill-rule:evenodd;clip-rule:evenodd;fill:#021B8D;}
	.st123{filter:url(#Adobe_OpacityMaskFilter_00000078728965655289180970000006063219722867421603_);}
	.st124{fill:url(#SVGID_00000079476910348832199450000005616415318719005860_);}
	.st125{mask:url(#SVGID_00000018221638528639679970000013743441741494124685_);fill-rule:evenodd;clip-rule:evenodd;fill:#021B8D;}
	
		.st126{clip-path:url(#SVGID_00000142167705528590322640000001085940664655249323_);fill:url(#SVGID_00000108299612819191020470000000712476879955078831_);}
	.st127{filter:url(#Adobe_OpacityMaskFilter_00000069365564628846141870000012635376686308609923_);}
	.st128{fill:url(#SVGID_00000160151729068916043750000007165485393091085474_);}
	.st129{mask:url(#SVGID_00000019635974438169902190000007799005063519858620_);fill-rule:evenodd;clip-rule:evenodd;fill:#1FA39A;}
	.st130{filter:url(#Adobe_OpacityMaskFilter_00000119838555704981552600000002282114739613002419_);}
	.st131{fill:url(#SVGID_00000132073944664883680400000001607463061848258226_);}
	.st132{mask:url(#SVGID_00000124876258383105671110000015682066846834791346_);fill-rule:evenodd;clip-rule:evenodd;fill:#ECF955;}
	.st133{filter:url(#Adobe_OpacityMaskFilter_00000026136213106607518010000011852479027454443141_);}
	.st134{fill:url(#SVGID_00000073684404758066999250000010708817938256581513_);}
	.st135{mask:url(#SVGID_00000169558938306989125810000014151357646143741630_);fill-rule:evenodd;clip-rule:evenodd;fill:#ECF955;}
	
		.st136{clip-path:url(#SVGID_00000052066265814995409360000002621720307428793001_);fill:#606060;stroke:#FFFFFF;stroke-miterlimit:10;}
	.st137{filter:url(#Adobe_OpacityMaskFilter_00000139996214354103226280000017017559653207937679_);}
	.st138{fill:url(#SVGID_00000031165110937071517360000003196830054789235383_);}
	
		.st139{mask:url(#SVGID_00000158710363109821857450000016165475792042139569_);fill-rule:evenodd;clip-rule:evenodd;fill:#606060;stroke:#FFFFFF;stroke-miterlimit:10;}
	
		.st140{clip-path:url(#SVGID_00000050649675375579397860000006674124886988368540_);fill:#606060;stroke:#FFFFFF;stroke-miterlimit:10;}
	
		.st141{clip-path:url(#SVGID_00000018229508877292724220000004238848923788074125_);fill:url(#SVGID_00000108290807076592379080000014523775421398865799_);}
	.st142{filter:url(#Adobe_OpacityMaskFilter_00000146464066800041090650000000835218517901287315_);}
	.st143{fill:url(#SVGID_00000122703724309398346810000012585827146179740032_);}
	.st144{mask:url(#SVGID_00000011727015162140748610000015266406307346255777_);fill-rule:evenodd;clip-rule:evenodd;fill:#ADF3FF;}
	.st145{filter:url(#Adobe_OpacityMaskFilter_00000168086782468400470340000002091032946598271656_);}
	.st146{fill:url(#SVGID_00000026144064464879164200000003843468711649773205_);}
	.st147{mask:url(#SVGID_00000077303861611807385380000013882959347830116262_);fill-rule:evenodd;clip-rule:evenodd;fill:#021B8D;}
	.st148{filter:url(#Adobe_OpacityMaskFilter_00000179637345987325633390000003595741548998990742_);}
	.st149{fill:url(#SVGID_00000054957141992497606350000002603298730836133033_);}
	.st150{mask:url(#SVGID_00000120559154235796217390000002879496782200412294_);fill-rule:evenodd;clip-rule:evenodd;fill:#021B8D;}
	
		.st151{clip-path:url(#SVGID_00000048471552019193753940000006624367009446830510_);fill:url(#SVGID_00000002359291506136190350000015861487223023445431_);}
	.st152{filter:url(#Adobe_OpacityMaskFilter_00000014600727123246262800000007617954141204504254_);}
	.st153{fill:url(#SVGID_00000141438070517305511780000001034149517235014794_);}
	.st154{mask:url(#SVGID_00000067230394286377313530000016764767258154251432_);fill-rule:evenodd;clip-rule:evenodd;fill:#1FA39A;}
	.st155{filter:url(#Adobe_OpacityMaskFilter_00000024713314936611226910000002818962059140209335_);}
	.st156{fill:url(#SVGID_00000153691646701010554780000015423611923620094395_);}
	.st157{mask:url(#SVGID_00000183218577512428727340000002307855021031545769_);fill-rule:evenodd;clip-rule:evenodd;fill:#ECF955;}
	.st158{filter:url(#Adobe_OpacityMaskFilter_00000106848295249805946010000011683307346766722442_);}
	.st159{fill:url(#SVGID_00000114781022807896195550000006726692383869586874_);}
	.st160{mask:url(#SVGID_00000127034585207956107890000005146176730264268180_);fill-rule:evenodd;clip-rule:evenodd;fill:#ECF955;}
	.st161{clip-path:url(#SVGID_00000093861933245391588810000006258451980341552024_);fill:#FFFFFF;}
	.st162{filter:url(#Adobe_OpacityMaskFilter_00000141438940329238142450000003137357254383094409_);}
	.st163{fill:url(#SVGID_00000173150402474358457840000017542843080403373205_);}
	.st164{mask:url(#SVGID_00000101820796362660433800000004338537782132832911_);fill-rule:evenodd;clip-rule:evenodd;fill:#FFFFFF;}
	.st165{filter:url(#Adobe_OpacityMaskFilter_00000040568755680972568910000007517637170274476416_);}
	.st166{fill:url(#SVGID_00000137837396858829697130000001881312696432856473_);}
	.st167{mask:url(#SVGID_00000017475386562054184930000014813758865251486117_);fill-rule:evenodd;clip-rule:evenodd;fill:#FFFFFF;}
	.st168{filter:url(#Adobe_OpacityMaskFilter_00000041271805343761921370000008484322321359364266_);}
	.st169{fill:url(#SVGID_00000040543002938227336620000014942125224438323590_);}
	.st170{mask:url(#SVGID_00000150066080781941119660000015702175021752616839_);fill-rule:evenodd;clip-rule:evenodd;fill:#FFFFFF;}
	.st171{clip-path:url(#SVGID_00000011005303558556358330000012831725111590373797_);fill:#FFFFFF;}
	.st172{filter:url(#Adobe_OpacityMaskFilter_00000067198877372242669320000000255067712688230825_);}
	.st173{fill:url(#SVGID_00000139993519160533884180000002261188816932671673_);}
	.st174{mask:url(#SVGID_00000092445876594233616010000013107017198427227034_);fill-rule:evenodd;clip-rule:evenodd;fill:#FFFFFF;}
	.st175{filter:url(#Adobe_OpacityMaskFilter_00000126308085355090143140000005664326429436546464_);}
	.st176{fill:url(#SVGID_00000070839450248209784930000012622783666899200385_);}
	.st177{mask:url(#SVGID_00000038413441833046361180000003250604299459608246_);fill-rule:evenodd;clip-rule:evenodd;fill:#FFFFFF;}
	.st178{filter:url(#Adobe_OpacityMaskFilter_00000081642464294570172190000007719128042594392990_);}
	.st179{fill:url(#SVGID_00000083058970920493149920000017040942451659717792_);}
	.st180{mask:url(#SVGID_00000101066544258193715070000013102846237881662383_);fill-rule:evenodd;clip-rule:evenodd;fill:#FFFFFF;}
	.st181{clip-path:url(#SVGID_00000021823195566260355890000011735202831795524508_);fill:#FFFFFF;}
	.st182{filter:url(#Adobe_OpacityMaskFilter_00000039099306861866129350000003816183252217714051_);}
	.st183{fill:url(#SVGID_00000122697429892330523220000014577559677293504956_);}
	.st184{mask:url(#SVGID_00000090260141219006382870000014002743632344702637_);fill-rule:evenodd;clip-rule:evenodd;fill:#FFFFFF;}
	.st185{filter:url(#Adobe_OpacityMaskFilter_00000161629692230952239660000018010430589487716245_);}
	.st186{fill:url(#SVGID_00000098199520662422346480000016328317992944675974_);}
	.st187{mask:url(#SVGID_00000043422602929664088410000003901246636348285844_);fill-rule:evenodd;clip-rule:evenodd;fill:#FFFFFF;}
	.st188{filter:url(#Adobe_OpacityMaskFilter_00000143597727658776068500000014111267475961456522_);}
	.st189{fill:url(#SVGID_00000155122642890303743810000004360888188963002270_);}
	.st190{mask:url(#SVGID_00000180331830952204822160000010842435634151422378_);fill-rule:evenodd;clip-rule:evenodd;fill:#FFFFFF;}
	.st191{clip-path:url(#SVGID_00000018923708002681813230000018434907188796580780_);fill:#FFFFFF;}
	.st192{filter:url(#Adobe_OpacityMaskFilter_00000042727658599806840740000007379325372329905541_);}
	.st193{fill:url(#SVGID_00000059268017474708239940000005594443969576061328_);}
	.st194{mask:url(#SVGID_00000116915285877069738790000018311205363033021880_);fill-rule:evenodd;clip-rule:evenodd;fill:#FFFFFF;}
	.st195{filter:url(#Adobe_OpacityMaskFilter_00000085221851770483712910000015308150949061921961_);}
	.st196{fill:url(#SVGID_00000094591372936898493560000013752404654353186744_);}
	.st197{mask:url(#SVGID_00000100372099535332475880000010229340055046055321_);fill-rule:evenodd;clip-rule:evenodd;fill:#FFFFFF;}
	.st198{filter:url(#Adobe_OpacityMaskFilter_00000013905048938693403230000011235932475521866634_);}
	.st199{fill:url(#SVGID_00000056386908824868351840000007511561666065715590_);}
	.st200{mask:url(#SVGID_00000034072571413839709010000013094333449668630401_);fill-rule:evenodd;clip-rule:evenodd;fill:#FFFFFF;}
	.st201{fill:none;stroke:#FFFFFF;stroke-miterlimit:10;}
	
		.st202{clip-path:url(#SVGID_00000033335927606045598700000007693616183425245062_);fill:url(#SVGID_00000070822117451277684420000015270551829688471732_);}
	.st203{filter:url(#Adobe_OpacityMaskFilter_00000111149010587787128520000002895016863150016685_);}
	.st204{fill:url(#SVGID_00000080203159367392418640000010379639903832594053_);}
	.st205{mask:url(#SVGID_00000101066488129813369070000005388350617343538848_);fill-rule:evenodd;clip-rule:evenodd;fill:#ADF3FF;}
	.st206{filter:url(#Adobe_OpacityMaskFilter_00000045593674598522095600000001098037647546419866_);}
	.st207{fill:url(#SVGID_00000009582307690084802990000014565994843077153160_);}
	.st208{mask:url(#SVGID_00000038410330940432995310000010529973105514091909_);fill-rule:evenodd;clip-rule:evenodd;fill:#021B8D;}
	.st209{filter:url(#Adobe_OpacityMaskFilter_00000140721884999887385870000009715773355488328637_);}
	.st210{fill:url(#SVGID_00000084506910170898022550000006545218673917656497_);}
	.st211{mask:url(#SVGID_00000085246025890569738940000014299043200648282269_);fill-rule:evenodd;clip-rule:evenodd;fill:#021B8D;}
	
		.st212{clip-path:url(#SVGID_00000118390466916341829080000017612456676138558623_);fill:url(#SVGID_00000109726701586342735790000003480254863915920784_);}
	.st213{filter:url(#Adobe_OpacityMaskFilter_00000157997942547420629490000008353485762214146194_);}
	.st214{fill:url(#SVGID_00000033370147116456381230000015638161494087777690_);}
	.st215{mask:url(#SVGID_00000082332152428456367100000017872498588607325315_);fill-rule:evenodd;clip-rule:evenodd;fill:#1FA39A;}
	.st216{filter:url(#Adobe_OpacityMaskFilter_00000094601770569778394920000006544197227191746465_);}
	.st217{fill:url(#SVGID_00000165926465318785633460000007156704543063040429_);}
	.st218{mask:url(#SVGID_00000103254026648192673120000017213305126982722239_);fill-rule:evenodd;clip-rule:evenodd;fill:#ECF955;}
	.st219{filter:url(#Adobe_OpacityMaskFilter_00000124870380788254813730000016611824214862610066_);}
	.st220{fill:url(#SVGID_00000075844615833649900000000008670524917039320973_);}
	.st221{mask:url(#SVGID_00000127752808149409339590000011802571327097076865_);fill-rule:evenodd;clip-rule:evenodd;fill:#ECF955;}
	
		.st222{clip-path:url(#SVGID_00000078010042070653551710000005834331050476932264_);fill:url(#SVGID_00000128447301666462482200000016661791208602701465_);}
	.st223{filter:url(#Adobe_OpacityMaskFilter_00000179616004523361966680000016116164545463927476_);}
	.st224{fill:url(#SVGID_00000116222965480313753660000011391089969881210800_);}
	.st225{mask:url(#SVGID_00000088095844623169093900000016961566833983240865_);fill-rule:evenodd;clip-rule:evenodd;fill:#ADF3FF;}
	.st226{filter:url(#Adobe_OpacityMaskFilter_00000140710402886630365050000002201381970278641026_);}
	.st227{fill:url(#SVGID_00000064355055834439117590000008799143888733559200_);}
	.st228{mask:url(#SVGID_00000008141980045443634500000004263811623581950885_);fill-rule:evenodd;clip-rule:evenodd;fill:#021B8D;}
	.st229{filter:url(#Adobe_OpacityMaskFilter_00000118375269271787976120000010003061801241906310_);}
	.st230{fill:url(#SVGID_00000070817180567414009490000015919609375547649152_);}
	.st231{mask:url(#SVGID_00000134929746871372648660000013713209093701129628_);fill-rule:evenodd;clip-rule:evenodd;fill:#021B8D;}
	
		.st232{clip-path:url(#SVGID_00000015352641817800087220000003474072118268730498_);fill:url(#SVGID_00000147937863025731783480000013581594199747933836_);}
	.st233{filter:url(#Adobe_OpacityMaskFilter_00000078035932285569411590000002671733406840236429_);}
	.st234{fill:url(#SVGID_00000122693992204521299080000011246581972130015930_);}
	.st235{mask:url(#SVGID_00000137818719112314669450000018007494201367097755_);fill-rule:evenodd;clip-rule:evenodd;fill:#1FA39A;}
	.st236{filter:url(#Adobe_OpacityMaskFilter_00000154412779320038073740000016926926305142250910_);}
	.st237{fill:url(#SVGID_00000108311014838530379660000001011952423805142718_);}
	.st238{mask:url(#SVGID_00000129201996441947708420000014054646254069976749_);fill-rule:evenodd;clip-rule:evenodd;fill:#ECF955;}
	.st239{filter:url(#Adobe_OpacityMaskFilter_00000091693882966723139320000015597552805076626314_);}
	.st240{fill:url(#SVGID_00000096054412150761448160000007980795215111891338_);}
	.st241{mask:url(#SVGID_00000021094238037737373360000000953981082010391459_);fill-rule:evenodd;clip-rule:evenodd;fill:#ECF955;}
	.st242{clip-path:url(#SVGID_00000107559146905470076330000007695384911902087300_);}
	.st243{filter:url(#Adobe_OpacityMaskFilter_00000106124883878636290320000010259967386888679810_);}
	.st244{fill:url(#SVGID_00000103237248023666673010000000258699035816080553_);}
	.st245{mask:url(#SVGID_00000075875858690145949190000007918140611058426542_);fill-rule:evenodd;clip-rule:evenodd;}
	.st246{filter:url(#Adobe_OpacityMaskFilter_00000161622831258480155620000010502076869825719993_);}
	.st247{fill:url(#SVGID_00000049936015609923867250000009022809262176156309_);}
	.st248{mask:url(#SVGID_00000011715151410631395360000004115154831382273163_);fill-rule:evenodd;clip-rule:evenodd;}
	.st249{filter:url(#Adobe_OpacityMaskFilter_00000119083860024631730310000001277496296277874099_);}
	.st250{fill:url(#SVGID_00000096752222257315639320000013720523476476363909_);}
	.st251{mask:url(#SVGID_00000070837024936644116020000015319719670157109397_);fill-rule:evenodd;clip-rule:evenodd;}
	.st252{clip-path:url(#SVGID_00000054977030736988114650000015351594224398226837_);}
	.st253{filter:url(#Adobe_OpacityMaskFilter_00000014631871581892818240000002128731476014533804_);}
	.st254{fill:url(#SVGID_00000064332063483308784220000006051072883202202787_);}
	.st255{mask:url(#SVGID_00000118387623974270366450000016332196991418472091_);fill-rule:evenodd;clip-rule:evenodd;}
	.st256{filter:url(#Adobe_OpacityMaskFilter_00000040533249679388492570000014197032247096774031_);}
	.st257{fill:url(#SVGID_00000027597939484661658220000008910422820058296488_);}
	.st258{mask:url(#SVGID_00000021078006949400261440000001868131786584270738_);fill-rule:evenodd;clip-rule:evenodd;}
	.st259{filter:url(#Adobe_OpacityMaskFilter_00000053530811195167441010000017712062156723312036_);}
	.st260{fill:url(#SVGID_00000075157713824434032010000012481344996198428825_);}
	.st261{mask:url(#SVGID_00000083065669504880552270000008626205248938826678_);fill-rule:evenodd;clip-rule:evenodd;}
	.st262{clip-path:url(#SVGID_00000048476284821961415390000013591927445852321969_);fill:#FFFFFF;}
	.st263{filter:url(#Adobe_OpacityMaskFilter_00000122709230975825851080000006043539019445807795_);}
	.st264{fill:url(#SVGID_00000028317481650128470150000003298807467513034887_);}
	.st265{mask:url(#SVGID_00000165214704409413286680000013436954267269009305_);fill-rule:evenodd;clip-rule:evenodd;fill:#FFFFFF;}
	.st266{filter:url(#Adobe_OpacityMaskFilter_00000064316321983681047710000007779792762204022972_);}
	.st267{fill:url(#SVGID_00000029024364109502042290000005849183825279830433_);}
	.st268{mask:url(#SVGID_00000094596396724452050730000013944399514263618460_);fill-rule:evenodd;clip-rule:evenodd;fill:#FFFFFF;}
	.st269{filter:url(#Adobe_OpacityMaskFilter_00000057123222882571459150000013747228865658763708_);}
	.st270{fill:url(#SVGID_00000125576243865131996980000015785965574996781734_);}
	.st271{mask:url(#SVGID_00000103236874941658751760000012204657812688263071_);fill-rule:evenodd;clip-rule:evenodd;fill:#FFFFFF;}
	.st272{clip-path:url(#SVGID_00000183963669767383165770000011232775349709619337_);fill:#FFFFFF;}
	.st273{filter:url(#Adobe_OpacityMaskFilter_00000101819531060744257840000010143876881399785348_);}
	.st274{fill:url(#SVGID_00000026157955057152204190000013978030467163722392_);}
	.st275{mask:url(#SVGID_00000153663634048475201270000011378099726152972954_);fill-rule:evenodd;clip-rule:evenodd;fill:#FFFFFF;}
	.st276{filter:url(#Adobe_OpacityMaskFilter_00000156558829362548913960000015619583947947021701_);}
	.st277{fill:url(#SVGID_00000029764729020201999210000010051785546381213611_);}
	.st278{mask:url(#SVGID_00000040566428252511729770000003611756163586735509_);fill-rule:evenodd;clip-rule:evenodd;fill:#FFFFFF;}
	.st279{filter:url(#Adobe_OpacityMaskFilter_00000042708145490102295830000003788766891712485007_);}
	.st280{fill:url(#SVGID_00000077303476471730109760000012458693665377219224_);}
	.st281{mask:url(#SVGID_00000141455411710740236060000015276899711879856271_);fill-rule:evenodd;clip-rule:evenodd;fill:#FFFFFF;}
</style>
<g id="Logo_06:_600_x__x_600_px">
	<g id="Graphic_Elements_5_">
	</g>
	<g id="Text_5_">
	</g>
</g>
<g id="Logo_05:_600_x__x_600_px">
	<g id="Graphic_Elements_4_">
	</g>
	<g id="Text_4_">
	</g>
</g>
<g id="Logo_04:_600_x__x_600_px">
	<g id="Graphic_Elements_3_">
	</g>
	<g id="Text_3_">
	</g>
</g>
<g id="Logo_03:_600_x__x_600_px">
	<g id="Graphic_Elements_2_">
	</g>
	<g id="Text_2_">
	</g>
</g>
<g id="Logo_02:_600_x__x_600_px">
	<g id="Graphic_Elements_1_">
	</g>
	<g id="Text_1_">
	</g>
</g>
<g id="Logo_01:_600_x__x_600_px">
	<g id="Graphic_Elements">
	</g>
	<g id="Text">
	</g>
	<g>
		<g>
			<path class="st10" d="M303.8,161.8c0.6,1.3,1.1,2.7,1.7,4.1c0.5-1.4,1.1-2.8,1.7-4.1c0.6-1.4,1.2-2.7,1.9-3.9l25-46.8
				c0.3-0.6,0.6-1.1,1-1.4c0.3-0.4,0.7-0.6,1.1-0.8c0.4-0.2,0.9-0.3,1.4-0.3c0.5,0,1.1-0.1,1.8-0.1h11.9V193h-13.9v-54.6
				c0-1,0-2.1,0.1-3.3c0.1-1.2,0.1-2.4,0.3-3.7l-25.5,47.9c-0.6,1.1-1.3,1.9-2.3,2.5c-0.9,0.6-2,0.9-3.3,0.9h-2.2
				c-1.2,0-2.3-0.3-3.3-0.9c-0.9-0.6-1.7-1.5-2.3-2.5l-25.9-48.1c0.2,1.3,0.3,2.5,0.3,3.8c0.1,1.2,0.1,2.4,0.1,3.4V193h-13.9v-84.5
				h11.9c0.7,0,1.3,0,1.8,0.1c0.5,0,1,0.1,1.4,0.3c0.4,0.2,0.8,0.4,1.1,0.8c0.4,0.4,0.7,0.8,1,1.4l25.3,46.9
				C302.6,159.1,303.2,160.4,303.8,161.8z"/>
			<path class="st10" d="M392.2,132.1c3.8,0,7.3,0.6,10.4,1.8c3.2,1.2,5.9,3,8.2,5.3c2.3,2.3,4.1,5.2,5.4,8.5
				c1.3,3.4,1.9,7.2,1.9,11.5c0,1.1,0,2-0.1,2.7c-0.1,0.7-0.3,1.3-0.5,1.7c-0.3,0.4-0.6,0.7-1,0.9c-0.4,0.2-1,0.3-1.6,0.3h-37.1
				c0.4,6.2,2.1,10.7,5,13.6c2.9,2.9,6.7,4.3,11.5,4.3c2.3,0,4.4-0.3,6-0.8c1.7-0.5,3.2-1.1,4.4-1.8c1.3-0.7,2.4-1.3,3.3-1.8
				c1-0.5,1.9-0.8,2.8-0.8c0.6,0,1.1,0.1,1.5,0.4c0.4,0.2,0.8,0.6,1.1,1l4.2,5.3c-1.6,1.9-3.4,3.4-5.4,4.7c-2,1.3-4.1,2.3-6.2,3
				c-2.2,0.8-4.4,1.3-6.6,1.6c-2.2,0.3-4.4,0.5-6.5,0.5c-4.2,0-8-0.7-11.6-2.1c-3.6-1.4-6.7-3.4-9.4-6.1c-2.7-2.7-4.7-6.1-6.3-10.1
				c-1.5-4-2.3-8.6-2.3-13.9c0-4.1,0.7-7.9,2-11.5c1.3-3.6,3.2-6.7,5.7-9.4c2.5-2.7,5.5-4.8,9.1-6.3
				C383.7,132.8,387.7,132.1,392.2,132.1z M392.5,142.4c-4.2,0-7.5,1.2-9.9,3.6c-2.4,2.4-3.9,5.7-4.6,10.1h27.1
				c0-1.9-0.3-3.6-0.8-5.3c-0.5-1.7-1.3-3.1-2.3-4.4c-1.1-1.2-2.4-2.2-4-3C396.5,142.8,394.6,142.4,392.5,142.4z"/>
			<path class="st10" d="M472.1,193c-1.9,0-3.1-0.9-3.7-2.6l-1.2-5.8c-1.2,1.4-2.6,2.7-3.9,3.8c-1.4,1.1-2.8,2.1-4.4,2.9
				c-1.6,0.8-3.3,1.5-5.1,1.9s-3.8,0.7-5.9,0.7c-3.3,0-6.3-0.7-9-2c-2.7-1.4-5.1-3.3-7-5.9c-2-2.6-3.5-5.8-4.6-9.6
				c-1.1-3.8-1.6-8.2-1.6-13.1c0-4.4,0.6-8.6,1.8-12.4c1.2-3.8,2.9-7.1,5.2-9.9c2.3-2.8,5-5,8.1-6.6s6.7-2.4,10.6-2.4
				c3.4,0,6.2,0.5,8.6,1.6c2.4,1.1,4.5,2.5,6.4,4.3v-31.7h14.4V193H472.1z M452.8,182.4c3,0,5.6-0.6,7.7-1.9c2.1-1.2,4.1-3,6-5.3
				v-26.9c-1.6-2-3.4-3.4-5.3-4.2c-1.9-0.8-4-1.2-6.2-1.2c-2.2,0-4.2,0.4-5.9,1.2c-1.8,0.8-3.3,2.1-4.5,3.7
				c-1.2,1.7-2.2,3.8-2.8,6.3c-0.7,2.6-1,5.6-1,9c0,3.5,0.3,6.5,0.8,8.9c0.6,2.4,1.4,4.4,2.4,6c1.1,1.5,2.3,2.7,3.9,3.3
				C449.3,182,451,182.4,452.8,182.4z"/>
			<path class="st10" d="M514,115.5c0,1.2-0.3,2.4-0.8,3.5c-0.5,1.1-1.2,2-2,2.9c-0.8,0.8-1.8,1.5-3,2c-1.1,0.5-2.3,0.7-3.6,0.7
				c-1.2,0-2.4-0.2-3.5-0.7c-1.1-0.5-2.1-1.1-2.9-2c-0.8-0.8-1.5-1.8-2-2.9c-0.5-1.1-0.7-2.3-0.7-3.5c0-1.3,0.2-2.5,0.7-3.6
				c0.5-1.1,1.1-2.1,2-2.9c0.8-0.8,1.8-1.5,2.9-2c1.1-0.5,2.3-0.7,3.5-0.7c1.3,0,2.5,0.2,3.6,0.7c1.1,0.5,2.1,1.1,3,2
				c0.8,0.8,1.5,1.8,2,2.9C513.8,113,514,114.2,514,115.5z M511.9,133v60h-14.4v-60H511.9z"/>
			<path class="st10" d="M570.3,145.7c-0.4,0.5-0.8,1-1.3,1.3c-0.4,0.3-1,0.5-1.8,0.5c-0.7,0-1.5-0.2-2.2-0.7
				c-0.7-0.4-1.5-1-2.5-1.5c-1-0.6-2.1-1.1-3.5-1.5c-1.3-0.4-3-0.7-5-0.7c-2.5,0-4.8,0.5-6.7,1.4c-1.9,0.9-3.5,2.2-4.8,3.9
				c-1.3,1.7-2.2,3.8-2.8,6.2c-0.6,2.4-0.9,5.2-0.9,8.3c0,3.2,0.3,6,1,8.5c0.7,2.5,1.7,4.6,3,6.3c1.3,1.7,2.8,3,4.7,3.9
				c1.8,0.9,3.9,1.3,6.2,1.3c2.3,0,4.2-0.3,5.6-0.8c1.4-0.6,2.6-1.2,3.6-1.9c1-0.7,1.8-1.3,2.5-1.9c0.7-0.6,1.5-0.8,2.4-0.8
				c1.2,0,2,0.4,2.6,1.3l4.2,5.3c-1.6,1.9-3.3,3.4-5.2,4.7c-1.9,1.3-3.8,2.3-5.8,3c-2,0.8-4.1,1.3-6.2,1.6c-2.1,0.3-4.3,0.5-6.4,0.5
				c-3.7,0-7.2-0.7-10.5-2.1c-3.3-1.4-6.1-3.4-8.6-6c-2.4-2.6-4.4-5.9-5.8-9.7c-1.4-3.8-2.1-8.2-2.1-13.1c0-4.4,0.6-8.5,1.9-12.2
				c1.3-3.8,3.1-7,5.6-9.8c2.5-2.7,5.5-4.9,9.1-6.5c3.6-1.6,7.8-2.3,12.5-2.3c4.5,0,8.4,0.7,11.8,2.2c3.4,1.4,6.4,3.5,9.1,6.2
				L570.3,145.7z"/>
			<path class="st10" d="M630.9,193h-6.5c-1.4,0-2.4-0.2-3.2-0.6s-1.4-1.2-1.8-2.5l-1.3-4.3c-1.5,1.4-3,2.6-4.5,3.6
				c-1.5,1-3,1.9-4.5,2.6c-1.6,0.7-3.2,1.2-5,1.6c-1.8,0.4-3.7,0.5-5.8,0.5c-2.5,0-4.9-0.3-7-1c-2.1-0.7-4-1.7-5.5-3.1
				c-1.5-1.4-2.7-3.1-3.6-5.1c-0.9-2-1.3-4.4-1.3-7.1c0-2.3,0.6-4.5,1.8-6.7c1.2-2.2,3.2-4.2,5.9-6c2.8-1.8,6.5-3.3,11-4.4
				c4.6-1.2,10.3-1.8,17.1-1.8v-3.5c0-4-0.8-7-2.5-9c-1.7-1.9-4.2-2.9-7.4-2.9c-2.3,0-4.3,0.3-5.8,0.8s-2.9,1.2-4.1,1.8
				c-1.1,0.7-2.2,1.3-3.2,1.8c-1,0.5-2,0.8-3.2,0.8c-1,0-1.8-0.3-2.5-0.8c-0.7-0.5-1.3-1.1-1.7-1.9l-2.6-4.6
				c6.9-6.3,15.2-9.5,25-9.5c3.5,0,6.6,0.6,9.4,1.7c2.7,1.1,5.1,2.7,7,4.8c1.9,2,3.4,4.5,4.4,7.3c1,2.8,1.5,6,1.5,9.4V193z
				 M602.9,184c1.5,0,2.8-0.1,4.1-0.4c1.2-0.3,2.4-0.7,3.5-1.2c1.1-0.5,2.2-1.2,3.2-2c1-0.8,2.1-1.7,3.1-2.8v-10
				c-4.2,0-7.7,0.3-10.5,0.8c-2.8,0.5-5.1,1.2-6.8,2c-1.7,0.8-2.9,1.8-3.7,2.9c-0.7,1.1-1.1,2.3-1.1,3.6c0,2.6,0.7,4.4,2.2,5.5
				C598.5,183.4,600.5,184,602.9,184z"/>
			<path class="st10" d="M660.5,106.1V193h-14.4v-86.9H660.5z"/>
			<path class="st10" d="M721.9,161.8c0.6,1.3,1.1,2.7,1.7,4.1c0.5-1.4,1.1-2.8,1.7-4.1c0.6-1.4,1.2-2.7,1.9-3.9l25-46.8
				c0.3-0.6,0.6-1.1,1-1.4c0.3-0.4,0.7-0.6,1.1-0.8c0.4-0.2,0.9-0.3,1.4-0.3c0.5,0,1.1-0.1,1.8-0.1h11.9V193h-13.9v-54.6
				c0-1,0-2.1,0.1-3.3s0.1-2.4,0.3-3.7l-25.5,47.9c-0.6,1.1-1.3,1.9-2.3,2.5c-0.9,0.6-2,0.9-3.3,0.9h-2.2c-1.2,0-2.3-0.3-3.3-0.9
				c-0.9-0.6-1.7-1.5-2.3-2.5l-25.9-48.1c0.2,1.3,0.3,2.5,0.3,3.8c0.1,1.2,0.1,2.4,0.1,3.4V193h-13.9v-84.5h11.9
				c0.7,0,1.3,0,1.8,0.1c0.5,0,1,0.1,1.4,0.3c0.4,0.2,0.8,0.4,1.1,0.8c0.4,0.4,0.7,0.8,1,1.4l25.3,46.9
				C720.7,159.1,721.4,160.4,721.9,161.8z"/>
			<path class="st10" d="M832.5,193h-6.5c-1.4,0-2.4-0.2-3.2-0.6c-0.8-0.4-1.4-1.2-1.8-2.5l-1.3-4.3c-1.5,1.4-3,2.6-4.5,3.6
				c-1.5,1-3,1.9-4.5,2.6c-1.6,0.7-3.2,1.2-5,1.6c-1.8,0.4-3.7,0.5-5.8,0.5c-2.5,0-4.9-0.3-7-1c-2.1-0.7-4-1.7-5.5-3.1
				s-2.7-3.1-3.6-5.1c-0.9-2-1.3-4.4-1.3-7.1c0-2.3,0.6-4.5,1.8-6.7c1.2-2.2,3.2-4.2,5.9-6c2.8-1.8,6.4-3.3,11-4.4
				c4.6-1.2,10.3-1.8,17.1-1.8v-3.5c0-4-0.8-7-2.5-9c-1.7-1.9-4.2-2.9-7.4-2.9c-2.3,0-4.3,0.3-5.8,0.8c-1.6,0.5-2.9,1.2-4.1,1.8
				c-1.2,0.7-2.2,1.3-3.2,1.8c-1,0.5-2,0.8-3.2,0.8c-1,0-1.8-0.3-2.5-0.8c-0.7-0.5-1.3-1.1-1.7-1.9l-2.6-4.6
				c6.9-6.3,15.2-9.5,25-9.5c3.5,0,6.6,0.6,9.4,1.7c2.7,1.1,5.1,2.7,7,4.8c1.9,2,3.4,4.5,4.4,7.3c1,2.8,1.5,6,1.5,9.4V193z
				 M804.5,184c1.5,0,2.8-0.1,4.1-0.4c1.2-0.3,2.4-0.7,3.5-1.2s2.2-1.2,3.2-2c1-0.8,2.1-1.7,3.1-2.8v-10c-4.2,0-7.7,0.3-10.6,0.8
				c-2.8,0.5-5.1,1.2-6.8,2c-1.7,0.8-2.9,1.8-3.7,2.9c-0.7,1.1-1.1,2.3-1.1,3.6c0,2.6,0.8,4.4,2.3,5.5
				C800.1,183.4,802.1,184,804.5,184z"/>
			<path class="st10" d="M866.4,193.9c-5.2,0-9.2-1.5-12-4.4c-2.8-2.9-4.2-7-4.2-12.2v-33.5h-6.1c-0.8,0-1.5-0.3-2-0.8
				c-0.6-0.5-0.8-1.3-0.8-2.3V135l9.6-1.6l3-16.4c0.2-0.8,0.5-1.4,1.1-1.8c0.6-0.4,1.3-0.6,2.1-0.6h7.5v18.9h15.8v10.3h-15.8v32.5
				c0,1.9,0.5,3.3,1.4,4.4c0.9,1.1,2.2,1.6,3.7,1.6c0.9,0,1.6-0.1,2.3-0.3c0.6-0.2,1.1-0.4,1.6-0.7c0.4-0.2,0.8-0.5,1.2-0.7
				c0.4-0.2,0.7-0.3,1.1-0.3c0.4,0,0.8,0.1,1.1,0.3c0.3,0.2,0.6,0.5,0.9,1l4.3,7c-2.1,1.8-4.5,3.1-7.2,4
				C872.2,193.4,869.4,193.9,866.4,193.9z"/>
			<path class="st10" d="M934.1,145.7c-0.4,0.5-0.8,1-1.3,1.3c-0.4,0.3-1,0.5-1.8,0.5c-0.7,0-1.5-0.2-2.2-0.7
				c-0.7-0.4-1.5-1-2.5-1.5c-1-0.6-2.1-1.1-3.5-1.5c-1.3-0.4-3-0.7-5-0.7c-2.5,0-4.8,0.5-6.7,1.4c-1.9,0.9-3.5,2.2-4.8,3.9
				c-1.3,1.7-2.2,3.8-2.8,6.2c-0.6,2.4-0.9,5.2-0.9,8.3c0,3.2,0.3,6,1,8.5c0.7,2.5,1.7,4.6,3,6.3c1.3,1.7,2.8,3,4.7,3.9
				c1.8,0.9,3.9,1.3,6.2,1.3c2.3,0,4.2-0.3,5.6-0.8c1.4-0.6,2.6-1.2,3.6-1.9c1-0.7,1.8-1.3,2.5-1.9c0.7-0.6,1.5-0.8,2.4-0.8
				c1.2,0,2,0.4,2.6,1.3l4.1,5.3c-1.6,1.9-3.3,3.4-5.2,4.7c-1.9,1.3-3.8,2.3-5.8,3c-2,0.8-4.1,1.3-6.2,1.6c-2.1,0.3-4.3,0.5-6.4,0.5
				c-3.7,0-7.2-0.7-10.5-2.1c-3.3-1.4-6.1-3.4-8.6-6c-2.4-2.6-4.4-5.9-5.8-9.7c-1.4-3.8-2.1-8.2-2.1-13.1c0-4.4,0.6-8.5,1.9-12.2
				c1.3-3.8,3.1-7,5.6-9.8c2.5-2.7,5.5-4.9,9.1-6.5c3.6-1.6,7.8-2.3,12.5-2.3c4.5,0,8.4,0.7,11.8,2.2c3.4,1.4,6.4,3.5,9.1,6.2
				L934.1,145.7z"/>
			<path class="st10" d="M947.7,193v-86.9h14.4v33.4c2.3-2.2,4.9-4,7.7-5.4c2.8-1.4,6.1-2,9.9-2c3.3,0,6.2,0.6,8.7,1.7
				c2.5,1.1,4.6,2.7,6.3,4.7c1.7,2,3,4.4,3.9,7.2c0.9,2.8,1.3,5.9,1.3,9.2V193h-14.4v-38.2c0-3.7-0.8-6.5-2.5-8.5
				c-1.7-2-4.2-3-7.6-3c-2.5,0-4.8,0.6-7,1.7c-2.2,1.1-4.2,2.7-6.2,4.6V193H947.7z"/>
		</g>
		<g>
			<g>
				<defs>
					<path id="SVGID_00000050638770845958274640000007217085553088221826_" d="M121.1,118.1l-14.2,8.2l-14.2,8.2v-6.8H19.9
						c-0.1,0-0.2,0-0.3,0.1c-0.1,0.1-0.1,0.2-0.1,0.3v43.8c0,0.1,0,0.2,0.1,0.3c0.1,0.1,0.2,0.1,0.3,0.1h65v65c0,0.1,0,0.2,0.1,0.3
						c0.1,0.1,0.2,0.1,0.3,0.1h43.8c0.1,0,0.2,0,0.3-0.1c0.1-0.1,0.1-0.2,0.1-0.3v-22.5l19.2-15.6v38.1c0,5.4-2.2,10.3-5.7,13.8
						c-3.5,3.5-8.4,5.7-13.8,5.7H85.3c-5.4,0-10.3-2.2-13.8-5.7c-3.5-3.5-5.7-8.4-5.7-13.8v-45.8H19.9c-5.4,0-10.3-2.2-13.8-5.7
						c-3.5-3.5-5.7-8.4-5.7-13.8v-43.8c0-5.4,2.2-10.3,5.7-13.8c3.5-3.5,8.4-5.7,13.8-5.7h72.7v-6.8l14.2,8.2L121.1,118.1z"/>
				</defs>
				<clipPath id="SVGID_00000136374946168076025450000016040274017132844969_">
					<use xlink:href="#SVGID_00000050638770845958274640000007217085553088221826_"  style="overflow:visible;"/>
				</clipPath>
				<linearGradient id="SVGID_1_" gradientUnits="userSpaceOnUse" x1="85.0313" y1="269.2392" x2="64.8859" y2="96.4114">
					<stop  offset="0" style="stop-color:#004DFE"/>
					<stop  offset="1" style="stop-color:#2DDAFF"/>
				</linearGradient>
				
					<rect x="0.3" y="101.7" style="clip-path:url(#SVGID_00000136374946168076025450000016040274017132844969_);fill:url(#SVGID_1_);" width="148.4" height="155.2"/>
			</g>
			<defs>
				<filter id="Adobe_OpacityMaskFilter" filterUnits="userSpaceOnUse" x="37.9" y="101.7" width="83.2" height="30.3">
					<feColorMatrix  type="matrix" values="1 0 0 0 0  0 1 0 0 0  0 0 1 0 0  0 0 0 1 0"/>
				</filter>
			</defs>
			
				<mask maskUnits="userSpaceOnUse" x="37.9" y="101.7" width="83.2" height="30.3" id="SVGID_00000136386198064081539440000000399037005576034696_">
				<g class="st17">
					
						<linearGradient id="SVGID_00000164490997808470216200000005333714633075884935_" gradientUnits="userSpaceOnUse" x1="-1184.238" y1="228.7044" x2="-1476.3434" y2="556.6831" gradientTransform="matrix(1 0 0 1 1421.8022 -289.3691)">
						<stop  offset="0" style="stop-color:#FFFFFF"/>
						<stop  offset="1" style="stop-color:#000000"/>
					</linearGradient>
					
						<rect x="37.9" y="101.7" style="fill:url(#SVGID_00000164490997808470216200000005333714633075884935_);" width="83.2" height="30.3"/>
				</g>
			</mask>
			
				<path style="mask:url(#SVGID_00000136386198064081539440000000399037005576034696_);fill-rule:evenodd;clip-rule:evenodd;fill:#ADF3FF;" d="
				M121.1,118.1l-14.2,8.2l-9.8,5.7c-1.5-0.5-2.9-1.1-4.4-1.6v-2.7h-7.3c-17.4-6.6-33.8-13.3-47.5-19.2h54.8v-6.8l14.2,8.2
				L121.1,118.1z"/>
			<defs>
				
					<filter id="Adobe_OpacityMaskFilter_00000026142795496261173940000013888856684402017187_" filterUnits="userSpaceOnUse" x="54.6" y="183.6" width="94.1" height="73.3">
					<feColorMatrix  type="matrix" values="1 0 0 0 0  0 1 0 0 0  0 0 1 0 0  0 0 0 1 0"/>
				</filter>
			</defs>
			
				<mask maskUnits="userSpaceOnUse" x="54.6" y="183.6" width="94.1" height="73.3" id="SVGID_00000160154327210568260560000008868630761815669139_">
				<g style="filter:url(#Adobe_OpacityMaskFilter_00000026142795496261173940000013888856684402017187_);">
					
						<linearGradient id="SVGID_00000116943144789791399700000008951214185107519679_" gradientUnits="userSpaceOnUse" x1="-2000.54" y1="956.4017" x2="-1259.3843" y2="342.089" gradientTransform="matrix(1 0 0 1 1435.9653 -183.8975)">
						<stop  offset="0" style="stop-color:#FFFFFF"/>
						<stop  offset="1" style="stop-color:#000000"/>
					</linearGradient>
					
						<rect x="54.6" y="183.6" style="fill:url(#SVGID_00000116943144789791399700000008951214185107519679_);" width="94.1" height="73.3"/>
				</g>
			</mask>
			
				<path style="mask:url(#SVGID_00000160154327210568260560000008868630761815669139_);fill-rule:evenodd;clip-rule:evenodd;fill:#021B8D;" d="
				M84.9,183.6v53.7c0,0.1,0,0.2,0.1,0.3c0.1,0.1,0.2,0.1,0.3,0.1h43.8c0.1,0,0.2,0,0.3-0.1c0.1-0.1,0.1-0.2,0.1-0.3v-22.5
				l19.2-15.6v38.1c0,5.4-2.2,10.3-5.7,13.8c-3.5,3.5-8.4,5.7-13.8,5.7H85.3c-5.4,0-10.3-2.2-13.8-5.7c-3.5-3.5-5.7-8.4-5.7-13.8
				v-45.8H54.6C64.9,187.6,75.1,185.1,84.9,183.6"/>
			<defs>
				
					<filter id="Adobe_OpacityMaskFilter_00000047057146886218617890000006441688226151594680_" filterUnits="userSpaceOnUse" x="0.3" y="154.8" width="147.6" height="102.1">
					<feColorMatrix  type="matrix" values="1 0 0 0 0  0 1 0 0 0  0 0 1 0 0  0 0 0 1 0"/>
				</filter>
			</defs>
			
				<mask maskUnits="userSpaceOnUse" x="0.3" y="154.8" width="147.6" height="102.1" id="SVGID_00000026847871118621036250000002233255444627824829_">
				<g style="filter:url(#Adobe_OpacityMaskFilter_00000047057146886218617890000006441688226151594680_);">
					
						<linearGradient id="SVGID_00000145747429602656454340000005267995391557649846_" gradientUnits="userSpaceOnUse" x1="-1768.5806" y1="903.0427" x2="-1240.7472" y2="304.4218" gradientTransform="matrix(1 0 0 1 1390.1128 -183.8975)">
						<stop  offset="0" style="stop-color:#FFFFFF"/>
						<stop  offset="1" style="stop-color:#000000"/>
					</linearGradient>
					
						<rect x="0.3" y="154.8" style="fill:url(#SVGID_00000145747429602656454340000005267995391557649846_);" width="147.6" height="102.1"/>
				</g>
			</mask>
			
				<path style="mask:url(#SVGID_00000026847871118621036250000002233255444627824829_);fill-rule:evenodd;clip-rule:evenodd;fill:#021B8D;" d="
				M84.9,211.1v26.2c0,0.1,0,0.2,0.1,0.3c0.1,0.1,0.2,0.1,0.3,0.1h43.8c0.1,0,0.2,0,0.3-0.1c0.1-0.1,0.1-0.2,0.1-0.3v-2.5
				c6.1,2.9,12.2,5.7,18.3,8.2c-0.9,3.1-2.7,5.9-4.9,8.2c-3.5,3.5-8.4,5.7-13.8,5.7H85.3c-5.4,0-10.3-2.2-13.8-5.7
				c-3.5-3.5-5.7-8.4-5.7-13.8v-37.8C71.9,203.4,78.4,207.2,84.9,211.1 M19.5,168.8v3.2c0,0.1,0,0.2,0.1,0.3
				c0.1,0.1,0.2,0.1,0.3,0.1h4.7c8.7,6.1,18.3,12.6,28.5,19.2H19.9c-5.4,0-10.3-2.2-13.8-5.7c-3.5-3.5-5.7-8.4-5.7-13.8v-17.1
				C5.9,159,12.3,163.7,19.5,168.8z"/>
			<g>
				<defs>
					<path id="SVGID_00000124850058133257720000000015643062457738944669_" d="M65.7,99.9V62.7c0-5.4,2.2-10.3,5.7-13.8
						c3.5-3.5,8.4-5.7,13.8-5.7h43.8c5.4,0,10.3,2.2,13.8,5.7c3.5,3.5,5.7,8.4,5.7,13.8v45.8h45.8c5.4,0,10.3,2.2,13.8,5.7
						c3.5,3.5,5.7,8.4,5.7,13.8v43.8c0,5.4-2.2,10.3-5.7,13.8c-3.5,3.5-8.4,5.7-13.8,5.7h-72.9v6.8l-14.2-8.2l-14.2-8.2l14.2-8.2
						l14.2-8.2v6.8h72.9c0.1,0,0.2,0,0.3-0.1c0.1-0.1,0.1-0.2,0.1-0.3v-43.8c0-0.1,0-0.2-0.1-0.3c-0.1-0.1-0.2-0.1-0.3-0.1h-65v-65
						c0-0.1,0-0.2-0.1-0.3c-0.1-0.1-0.2-0.1-0.3-0.1H85.3c-0.1,0-0.2,0-0.3,0.1c-0.1,0.1-0.1,0.2-0.1,0.3v23.7L65.7,99.9z"/>
				</defs>
				<clipPath id="SVGID_00000110448084808643242060000011274466505876784297_">
					<use xlink:href="#SVGID_00000124850058133257720000000015643062457738944669_"  style="overflow:visible;"/>
				</clipPath>
				
					<linearGradient id="SVGID_00000002369426162703989440000002351837185364408470_" gradientUnits="userSpaceOnUse" x1="134.8959" y1="192.8296" x2="145.1524" y2="45.6043">
					<stop  offset="0" style="stop-color:#27CBC0"/>
					<stop  offset="0.5" style="stop-color:#64E581"/>
					<stop  offset="1" style="stop-color:#A0FF42"/>
				</linearGradient>
				
					<rect x="65.7" y="43.1" style="clip-path:url(#SVGID_00000110448084808643242060000011274466505876784297_);fill:url(#SVGID_00000002369426162703989440000002351837185364408470_);" width="148.4" height="155.2"/>
			</g>
			<defs>
				
					<filter id="Adobe_OpacityMaskFilter_00000041268419940342682210000002258720610768365716_" filterUnits="userSpaceOnUse" x="93.2" y="165.5" width="85.4" height="32.9">
					<feColorMatrix  type="matrix" values="1 0 0 0 0  0 1 0 0 0  0 0 1 0 0  0 0 0 1 0"/>
				</filter>
			</defs>
			
				<mask maskUnits="userSpaceOnUse" x="93.2" y="165.5" width="85.4" height="32.9" id="SVGID_00000156555622120819743650000014759620295504407479_">
				<g style="filter:url(#Adobe_OpacityMaskFilter_00000041268419940342682210000002258720610768365716_);">
					
						<linearGradient id="SVGID_00000155133200039239165880000009761879274249915278_" gradientUnits="userSpaceOnUse" x1="-1436.1725" y1="487.8551" x2="-1260.3325" y2="364.5407" gradientTransform="matrix(1 0 0 1 1468.499 -233.3301)">
						<stop  offset="0" style="stop-color:#FFFFFF"/>
						<stop  offset="1" style="stop-color:#000000"/>
					</linearGradient>
					
						<rect x="93.2" y="165.5" style="fill:url(#SVGID_00000155133200039239165880000009761879274249915278_);" width="85.4" height="32.9"/>
				</g>
			</mask>
			
				<polygon style="mask:url(#SVGID_00000156555622120819743650000014759620295504407479_);fill-rule:evenodd;clip-rule:evenodd;fill:#1FA39A;" points="
				178.5,191.5 121.6,191.5 121.6,198.3 107.4,190.1 93.2,181.9 107.4,173.7 121.6,165.5 121.6,172.3 156.3,172.3 			"/>
			<defs>
				
					<filter id="Adobe_OpacityMaskFilter_00000098214089748721954170000013725085798860490934_" filterUnits="userSpaceOnUse" x="127.1" y="43.1" width="87" height="142.2">
					<feColorMatrix  type="matrix" values="1 0 0 0 0  0 1 0 0 0  0 0 1 0 0  0 0 0 1 0"/>
				</filter>
			</defs>
			
				<mask maskUnits="userSpaceOnUse" x="127.1" y="43.1" width="87" height="142.2" id="SVGID_00000027594440803312575440000002984045769668760223_">
				<g style="filter:url(#Adobe_OpacityMaskFilter_00000098214089748721954170000013725085798860490934_);">
					
						<linearGradient id="SVGID_00000069367543791213627680000013337666939223792300_" gradientUnits="userSpaceOnUse" x1="-938.0529" y1="115.4743" x2="-1453.5131" y2="438.005" gradientTransform="matrix(1 0 0 1 1497.1826 -244.3711)">
						<stop  offset="0" style="stop-color:#FFFFFF"/>
						<stop  offset="1" style="stop-color:#000000"/>
					</linearGradient>
					
						<rect x="127.1" y="43.1" style="fill:url(#SVGID_00000069367543791213627680000013337666939223792300_);" width="87" height="142.2"/>
				</g>
			</mask>
			
				<path style="mask:url(#SVGID_00000027594440803312575440000002984045769668760223_);fill-rule:evenodd;clip-rule:evenodd;fill:#ECF955;" d="
				M154.6,108.5h40c5.4,0,10.3,2.2,13.8,5.7c3.5,3.5,5.7,8.4,5.7,13.8v43.8c0,5.2-2,9.9-5.3,13.4c-4.8-4.6-9.5-9.6-13.9-14.7v-42.4
				c0-0.1,0-0.2-0.1-0.3c-0.1-0.1-0.2-0.1-0.3-0.1H165C161.3,121.3,157.8,114.9,154.6,108.5 M127.1,43.1h2c5.4,0,10.3,2.2,13.8,5.7
				c3.5,3.5,5.7,8.4,5.7,13.8v33.9C139.3,76.5,132.1,57.6,127.1,43.1z"/>
			<defs>
				
					<filter id="Adobe_OpacityMaskFilter_00000176012311521499680370000003081239017775059882_" filterUnits="userSpaceOnUse" x="65.7" y="43.1" width="148.4" height="84.7">
					<feColorMatrix  type="matrix" values="1 0 0 0 0  0 1 0 0 0  0 0 1 0 0  0 0 0 1 0"/>
				</filter>
			</defs>
			
				<mask maskUnits="userSpaceOnUse" x="65.7" y="43.1" width="148.4" height="84.7" id="SVGID_00000175324862771995369850000014229098200741968298_">
				<g style="filter:url(#Adobe_OpacityMaskFilter_00000176012311521499680370000003081239017775059882_);">
					
						<linearGradient id="SVGID_00000059988924401596253800000001312789584322130858_" gradientUnits="userSpaceOnUse" x1="-1161.4315" y1="69.569" x2="-1350.4039" y2="474.8843" gradientTransform="matrix(1 0 0 1 1445.3125 -292.8833)">
						<stop  offset="0" style="stop-color:#FFFFFF"/>
						<stop  offset="1" style="stop-color:#000000"/>
					</linearGradient>
					
						<rect x="65.7" y="43.1" style="fill:url(#SVGID_00000059988924401596253800000001312789584322130858_);" width="148.4" height="84.7"/>
				</g>
			</mask>
			
				<path style="mask:url(#SVGID_00000175324862771995369850000014229098200741968298_);fill-rule:evenodd;clip-rule:evenodd;fill:#ECF955;" d="
				M65.7,67.9v-5.2c0-5.4,2.2-10.3,5.7-13.8c3.5-3.5,8.4-5.7,13.8-5.7h43.8c5.4,0,10.3,2.2,13.8,5.7c3.5,3.5,5.7,8.4,5.7,13.8v45.8
				h45.8c5.4,0,10.3,2.2,13.8,5.7c3.5,3.5,5.7,8.3,5.7,13.6c-23.9-2.5-53.3-8.6-84.6-22.1v-43c0-0.1,0-0.2-0.1-0.3
				c-0.1-0.1-0.2-0.1-0.3-0.1H85.3c-0.1,0-0.2,0-0.3,0.1c-0.1,0.1-0.1,0.2-0.1,0.3v18.9C78.5,77.4,72.1,72.9,65.7,67.9"/>
		</g>
	</g>
</g>
</svg>
